<svg xmlns="http://www.w3.org/2000/svg" width="800" height="800" fill="none" fill-rule="evenodd" stroke="#000" stroke-linejoin="bevel" stroke-miterlimit="10" stroke-width=".501" font-family="Times New Roman" font-size="16" overflow="visible" style="font-variant-ligatures:none" viewBox="0 -600 600 600"><defs><linearGradient id="a" x1="0" x2="312.545" y1="0" y2="-462.497" gradientTransform="translate(212.354 537.611)" gradientUnits="userSpaceOnUse"><stop offset="0" stop-color="#33ffdc"/><stop offset="1" stop-color="#3393ff"/></linearGradient></defs><g fill-rule="nonzero" stroke="none"><path fill="url(#a)" d="M313.788 587.5c-11.254 0-24.079-.159-38.451-.438a3433 3433 0 0 1-43.683-1.162c-14.759-.5-28.325-1.05-40.717-1.655-12.395-.604-22.233-1.233-29.524-1.895-19.317-1.359-35.305-3.292-47.976-5.805-12.695-2.508-23.361-5.966-32.057-10.375-8.688-4.416-16.705-10.158-24.076-17.241-8.417-7.971-15.504-18.209-21.25-30.742q-8.64-18.762-13.821-47.354c-3.454-19.05-5.946-42.388-7.479-70S12.47 340.32 12.5 302.154c-.038-38.334.458-70.826 1.504-97.485 1.037-26.691 2.846-48.924 5.391-66.733 2.542-17.792 6.063-32.6 10.546-44.379 4.492-11.779 10.167-21.945 17.021-30.487 6.767-9.087 14.151-16.537 22.155-22.38 8.016-5.836 17.442-10.433 28.299-13.812 10.85-3.346 23.9-5.875 39.163-7.525 5.4-.688 13.383-1.354 23.954-2.017 10.592-.667 22.887-1.3 36.921-1.879 14.037-.588 28.933-1.088 44.675-1.533 15.751-.438 31.466-.792 47.184-1.042 15.708-.246 30.541-.383 44.467-.383 35.171-.034 65.158.7 90 2.162 24.833 1.496 45.579 3.975 62.2 7.475 16.641 3.517 30.221 8.242 40.754 14.238 10.529 5.979 19.054 13.466 25.617 22.404 8.462 11.162 15.262 26.496 20.437 45.983 5.175 19.533 8.925 44.954 11.263 76.271 2.337 31.329 3.487 70.267 3.45 116.829-.013 15.942-.23 32.404-.625 49.413-.425 16.979-.988 33.075-1.721 48.262q-1.083 22.8-2.484 38.575c-1.791 18.983-4.025 35.083-6.708 48.325-2.683 13.238-6.1 24.521-10.242 33.85-4.141 9.338-9.291 17.654-15.445 24.917-7.188 9.175-16.296 16.783-27.35 22.783-11.059 6.029-25.4 10.75-43.067 14.183-17.654 3.434-39.975 5.863-66.971 7.267-26.996 1.425-60.025 2.104-99.1 2.063m-35.854-68.575c29.092.004 53.733-.109 73.916-.38 20.188-.254 37.166-.683 50.963-1.341 13.782-.621 25.649-1.517 35.588-2.604 9.92-1.13 19.183-2.538 27.758-4.221 15.483-2.938 27.458-8.896 35.932-17.904 8.504-9.017 13.75-21.63 15.789-37.809 1.375-8.854 2.583-21.604 3.633-38.254 1.029-16.612 1.821-35.396 2.396-56.333.562-20.917.857-42.221.862-63.929a1507 1507 0 0 0-1.05-54.538c-.666-18.392-1.587-35.537-2.729-51.467-1.146-15.912-2.422-29.137-3.804-39.666-2.688-17.046-7.843-30.284-15.429-39.725-7.592-9.459-18.088-15.629-31.45-18.538-10.529-2.3-24.184-4.266-40.942-5.941-16.754-1.663-35.504-2.93-56.262-3.834-20.738-.908-42.367-1.354-64.838-1.371-8.529.017-19.087.167-31.696.446q-19.704.468-39.401 1.164-18.998.675-37.983 1.661c-11.657.6-20.816 1.229-27.436 1.884-15.721 1.079-28.567 2.604-38.555 4.554-9.983 1.971-18 4.641-24.016 8.004-6.004 3.387-10.884 7.771-14.65 13.137-4.796 6.275-8.621 16.759-11.45 31.455-2.821 14.662-4.846 35.32-6.067 61.912-1.221 26.6-1.812 60.867-1.787 102.85-.013 36.45.775 67.054 2.395 91.883 1.621 24.8 4.15 44.575 7.621 59.3 3.454 14.734 7.925 25.188 13.425 31.334 5.746 6.808 15.409 12.304 29.009 16.483 13.604 4.138 32.566 7.163 56.895 9.021 24.334 1.887 55.438 2.796 93.363 2.767" transform="scale(1 -1)"/><path fill="#fff" d="M114.616-445.752h52.051v133.406l83.539-133.406h56.617l-83.49 141.536 99.169 148.807h-63.005l-92.83-140.419v140.419h-52.051ZM485.384-154.828q-3.483.581-7.549.58h-6.387q-58.94.001-102.782-42.68-43.551-42.97-43.551-102.491 0-59.81 43.842-103.072t102.781-43.261h7.549q3.483.58 4.936.58v54.585a78 78 0 0 0-11.614-.871q-37.164 0-65.037 27.002-27.873 27.003-27.873 64.456 0 37.455 27.873 65.037T472.9-207.38q6.388 0 12.484-.871Z"/></g></svg>