<svg xmlns="http://www.w3.org/2000/svg" xml:space="preserve" style="fill-rule:evenodd;clip-rule:evenodd;stroke-linejoin:round;stroke-miterlimit:2" viewBox="0 0 600 600"><path d="M0 0h599.996v599.996H0z" style="fill:#03001c"/><path d="M313.788 12.5c-11.254 0-24.079.159-38.45.438-14.383.296-28.942.671-43.683 1.162-14.759.5-28.325 1.05-40.717 1.655-12.396.604-22.233 1.233-29.525 1.895-19.317 1.359-35.304 3.292-47.975 5.805-12.696 2.508-23.362 5.966-32.058 10.375-8.688 4.416-16.704 10.158-24.075 17.241-8.417 7.971-15.504 18.209-21.25 30.742q-8.64 18.761-13.821 47.354c-3.454 19.05-5.946 42.388-7.479 70s-2.284 60.513-2.254 98.679c-.038 38.334.458 70.825 1.504 97.484 1.037 26.691 2.846 48.925 5.391 66.733 2.542 17.792 6.063 32.6 10.546 44.379 4.492 11.779 10.167 21.946 17.021 30.488 6.767 9.087 14.15 16.537 22.154 22.379 8.017 5.837 17.442 10.433 28.3 13.812 10.85 3.346 23.9 5.875 39.163 7.525 5.4.688 13.383 1.354 23.954 2.017 10.592.667 22.887 1.3 36.921 1.879 14.037.588 28.933 1.088 44.675 1.533 15.75.438 31.466.792 47.183 1.042 15.708.246 30.542.383 44.467.383 35.171.034 65.158-.7 90-2.162 24.833-1.496 45.579-3.975 62.2-7.475 16.641-3.517 30.221-8.242 40.754-14.238 10.529-5.979 19.054-13.466 25.617-22.404 8.462-11.162 15.262-26.496 20.437-45.983 5.175-19.533 8.925-44.954 11.263-76.271 2.337-31.329 3.487-70.267 3.45-116.829-.013-15.942-.23-32.404-.625-49.413-.425-16.979-.988-33.075-1.721-48.262q-1.082-22.8-2.484-38.575c-1.791-18.983-4.025-35.083-6.708-48.325-2.683-13.238-6.1-24.521-10.242-33.85-4.141-9.338-9.291-17.654-15.445-24.917-7.188-9.175-16.296-16.783-27.35-22.783-11.059-6.029-25.4-10.75-43.067-14.183-17.654-3.434-39.975-5.863-66.971-7.267-26.996-1.425-60.025-2.104-99.1-2.063m-35.854 68.575c29.092-.004 53.733.109 73.917.38 20.187.254 37.166.683 50.962 1.341 13.783.621 25.65 1.517 35.588 2.604 9.92 1.13 19.183 2.538 27.758 4.221 15.483 2.938 27.458 8.896 35.933 17.904 8.504 9.017 13.75 21.63 15.788 37.809 1.375 8.854 2.583 21.604 3.633 38.254 1.029 16.612 1.821 35.396 2.396 56.333.562 20.917.858 42.221.862 63.929a1504 1504 0 0 1-1.05 54.538c-.666 18.392-1.587 35.537-2.729 51.467-1.146 15.912-2.421 29.137-3.804 39.666-2.687 17.046-7.842 30.284-15.429 39.725-7.592 9.459-18.088 15.629-31.45 18.538-10.529 2.3-24.183 4.266-40.942 5.941-16.754 1.663-35.504 2.93-56.262 3.834-20.738.908-42.367 1.354-64.838 1.371-8.529-.017-19.087-.167-31.696-.446a3397 3397 0 0 1-39.4-1.163 2320 2320 0 0 1-37.983-1.662c-11.658-.6-20.817-1.229-27.437-1.884-15.721-1.079-28.567-2.604-38.555-4.554-9.983-1.971-18-4.641-24.016-8.004-6.004-3.387-10.884-7.771-14.65-13.137-4.796-6.275-8.621-16.759-11.45-31.455-2.821-14.662-4.846-35.32-6.067-61.912-1.221-26.6-1.812-60.867-1.787-102.85-.013-36.45.775-67.054 2.395-91.883 1.621-24.8 4.15-44.575 7.621-59.3 3.454-14.734 7.925-25.188 13.425-31.334 5.746-6.808 15.409-12.304 29.009-16.483 13.604-4.138 32.566-7.163 56.895-9.021 24.334-1.887 55.438-2.796 93.363-2.767" style="fill:url(#a);fill-rule:nonzero"/><path d="M114.616 154.248h52.051v133.406l83.539-133.406h56.617l-83.49 141.536 99.169 148.807h-63.005l-92.83-140.419v140.419h-52.051z" style="fill:#fff;fill-rule:nonzero"/><path d="M485.384 445.172q-3.483.58-7.549.58h-6.387q-58.94 0-102.782-42.68-43.551-42.97-43.551-102.491 0-59.81 43.842-103.072t102.781-43.261h7.549q3.484.58 4.936.58v54.585a78 78 0 0 0-11.614-.871q-37.164 0-65.037 27.002T379.699 300t27.873 65.037T472.9 392.62q6.388 0 12.484-.871z" style="fill:#ebebeb;fill-rule:nonzero"/><defs><linearGradient id="a" x1="0" x2="1" y1="0" y2="0" gradientTransform="scale(558.2 -558.2)rotate(-55.95 .085 -.414)" gradientUnits="userSpaceOnUse"><stop offset="0" style="stop-color:#33ffdc;stop-opacity:1"/><stop offset="1" style="stop-color:#3393ff;stop-opacity:1"/></linearGradient></defs></svg>