<svg xmlns="http://www.w3.org/2000/svg" xml:space="preserve" style="fill-rule:evenodd;clip-rule:evenodd;stroke-linecap:round;stroke-linejoin:round;stroke-miterlimit:1.5" viewBox="0 0 625 150"><path d="M45.212 4.167c-4.373 16.218-1.972 95.145-3.545 95.145M77.034 4.598C64.18 29.896 38.891 68.286 51.883 71.043c2.105.447 32.742 5.56 35.93 30.421m18.624-18.122c3.415-2.526 5.775-4.669 7.357-6.485 6.247-7.168.351-9.218-.733-9.485-18.175-4.481-30.046 54.665 24.289 29.036m.657-23.808c-11.418-7.371 1.575 3.558 12.974 25.929 7.745-31.946 11.695-32.313 13.603-30.431 8.674 8.555 3.176 24.432 18.4 31.939m1.584-31.172c-1.067 7.367 13.475 52.821 23.552 13.067 10.341-40.793 17.338 12.394 27.234 25.406m2.832-36.337c-3.976 27.453 36.446 38.946 32.386 2.904-.779-6.911-3.979-4.703-4.394.62-1.651 21.162 57.39 68.341 20.586 71.244-1.659.131-37.085 1.561-43.425-20.325m124.358-60.037c-2.842-.431-33.284-5.05-26.497 23.955 5.395 23.056 41.644 5.896 44.898 4.355m30.844-29.825c-41.354 5.438-19.67 38.253 1.394 36.061 8.317-.865 35.926-14.835 5.721-34.899-3.927-2.608-10.822-.936-12.893-.14m69.78 8.11c-14.106-23.183-52.664 17.027-18.168 29.178 1.988.7 17.607 6.201 22.817-13.067 8.536-31.57-7.875-68.564-10.305-74.042 1.4 7.653 15.707 85.9 35.33 90.738" style="fill:none;stroke:#FFFFFF;stroke-width:5.92px"/><path d="M521.24 86.006c16.067-9.732 7.129-27.485-4.943-13.671-7.019 8.032-15.533 40.962 29.418 28.472m27.374-39.877c-52.193 20.483 5.404 14.056 9.66 23.85 5.173 11.906-25.502 33.69-32.386 6.533" style="fill:none;stroke:#FFFFFF;stroke-width:5.92px"/></svg>